<svg xmlns="http://www.w3.org/2000/svg" viewBox="0 0 304.72 57.14" shape-rendering="geometricPrecision">
  <defs>
    <style>.cls-1{fill:#004dbb;}.cls-2{fill:#fff;}.cls-3{fill:#f16322;}.cls-4{fill:#b3daed;}</style>
  </defs>
  <title>logo</title>
  <path class="cls-1" d="M211.81,2.23h1.79l4.74,12.14h-1.78l-1.33-3.65h-5.13l-1.36,3.65h-1.67ZM210.6,9.36h4.11l-2-5.66h0Zm14.33-7.12h4.17c3.74,0,5.83,1.87,5.83,5.78,0,4.06-1.78,6.36-5.83,6.36h-4.17ZM226.55,13h2.69c1.11,0,4.08-.31,4.08-4.78,0-2.89-1.07-4.64-4-4.64h-2.72Zm12-9h-1.44V2.23h1.44Zm-1.44,1.58h1.44v8.79h-1.44ZM245,14.37h-1.55l-3.26-8.79h1.62l2.46,7.33h0l2.4-7.33h1.51ZM251.27,4h-1.44V2.23h1.44Zm-1.44,1.58h1.44v8.79h-1.44Zm4.82,6c.05,1.29,1.17,1.7,2.36,1.7.9,0,2.13-.2,2.13-1.31s-1.43-1.31-2.87-1.63-2.87-.8-2.87-2.48,1.75-2.5,3.28-2.5c1.94,0,3.49.61,3.6,2.75h-1.44c-.1-1.12-1.09-1.48-2-1.48s-1.87.24-1.87,1.12c0,1,1.53,1.21,2.87,1.53s2.87.8,2.87,2.5c0,2.09-2,2.77-3.74,2.77-2,0-3.64-.8-3.72-3ZM264.06,4h-1.44V2.23h1.44Zm-1.44,1.58h1.44v8.79h-1.44Zm7.71-.2c2.79,0,4.27,2,4.27,4.61s-1.48,4.59-4.27,4.59-4.27-2-4.27-4.59S267.55,5.38,270.34,5.38Zm0,7.92c1.51,0,2.74-1.19,2.74-3.31s-1.22-3.33-2.74-3.33S267.6,7.84,267.6,10,268.82,13.3,270.34,13.3Zm6.24-7.72h1.36V7h0a3.06,3.06,0,0,1,2.86-1.6c2.31,0,3,1.33,3,3.21v5.78H282.4V8.42a1.66,1.66,0,0,0-1.79-1.77A2.47,2.47,0,0,0,278,9.41v5h-1.44Zm-64.51,20.5c2.79,0,4.27,2,4.27,4.61s-1.48,4.59-4.27,4.59-4.27-2-4.27-4.59S209.28,26.08,212.06,26.08Zm0,7.92c1.51,0,2.74-1.19,2.74-3.31s-1.22-3.33-2.74-3.33-2.74,1.19-2.74,3.33S210.55,34,212.06,34Zm6.69-6.44h-1.48V26.28h1.48V25c0-1.43.85-2.18,2.43-2.18a3.55,3.55,0,0,1,.93.14v1.26a2.71,2.71,0,0,0-.82-.12c-.7,0-1.1.22-1.1,1v1.22h1.7v1.27h-1.7v7.51h-1.45Zm18.61-1A3.2,3.2,0,0,0,234,24c-2.89,0-4.11,2.38-4.11,4.91,0,2.77,1.22,5.08,4.13,5.08a3.43,3.43,0,0,0,3.5-3.5h1.62c-.31,3-2.19,4.86-5.25,4.86-3.77,0-5.61-2.79-5.61-6.32s2-6.39,5.75-6.39c2.53,0,4.62,1.36,5,3.94ZM248.8,35a1.93,1.93,0,0,1-1,.24c-.75,0-1.22-.41-1.22-1.36a3.9,3.9,0,0,1-3.09,1.36c-1.6,0-2.91-.71-2.91-2.46,0-2,1.48-2.41,3-2.7s3-.2,3-1.29c0-1.26-1-1.46-2-1.46-1.22,0-2.12.37-2.19,1.67h-1.45c.08-2.18,1.77-2.94,3.72-2.94,1.58,0,3.3.36,3.3,2.41V33c0,.68,0,1,.46,1a1.22,1.22,0,0,0,.44-.08Zm-2.35-4.5a7.43,7.43,0,0,1-2.62.6c-1,.17-1.77.51-1.77,1.58s.82,1.29,1.7,1.29c1.9,0,2.69-1.19,2.69-2Zm4.08-7.6H252V35.07h-1.45Zm5.37,1.77h-1.45V22.94h1.45Zm-1.45,1.58h1.45v8.79h-1.45ZM259,27.56h-1.48V26.28H259V25c0-1.43.85-2.18,2.43-2.18a3.55,3.55,0,0,1,.93.14v1.26a2.71,2.71,0,0,0-.82-.12c-.7,0-1.1.22-1.1,1v1.22h1.7v1.27h-1.7v7.51H259Zm8.34-1.48c2.79,0,4.27,2,4.27,4.61s-1.48,4.59-4.27,4.59-4.27-2-4.27-4.59S264.53,26.08,267.32,26.08Zm0,7.92c1.51,0,2.74-1.19,2.74-3.31s-1.22-3.33-2.74-3.33-2.74,1.19-2.74,3.33S265.8,34,267.32,34Zm6.21-7.72h1.36v1.85h0a3.2,3.2,0,0,1,3.23-2.06v1.53c-2.33,0-3.18,1.33-3.18,3.55v3.91h-1.44Zm6.09,0H281v1.39h0a3.06,3.06,0,0,1,2.86-1.6c2.31,0,3,1.33,3,3.21v5.78h-1.44V29.12a1.66,1.66,0,0,0-1.79-1.77,2.47,2.47,0,0,0-2.6,2.75v5h-1.45Zm11.18-1.58h-1.45V22.94h1.45Zm-1.45,1.58h1.45v8.79h-1.45ZM301.06,35a1.93,1.93,0,0,1-1,.24c-.75,0-1.22-.41-1.22-1.36a3.9,3.9,0,0,1-3.09,1.36c-1.6,0-2.91-.71-2.91-2.46,0-2,1.48-2.41,3-2.7s3-.2,3-1.29c0-1.26-1-1.46-2-1.46-1.22,0-2.12.37-2.19,1.67h-1.45c.08-2.18,1.77-2.94,3.72-2.94,1.58,0,3.3.36,3.3,2.41V33c0,.68,0,1,.46,1a1.22,1.22,0,0,0,.44-.08Zm-2.35-4.5a7.43,7.43,0,0,1-2.62.6c-1,.17-1.77.51-1.77,1.58S295.14,34,296,34c1.9,0,2.69-1.19,2.69-2ZM217,47.29a3.2,3.2,0,0,0-3.4-2.58c-2.89,0-4.11,2.38-4.11,4.91,0,2.77,1.22,5.08,4.13,5.08a3.43,3.43,0,0,0,3.5-3.5h1.62c-.31,3-2.19,4.86-5.25,4.86-3.77,0-5.61-2.79-5.61-6.32s2-6.39,5.75-6.39c2.53,0,4.62,1.36,5,3.94Zm3.71-.3h1.36v1.85h0a3.2,3.2,0,0,1,3.23-2.06v1.53c-2.33,0-3.18,1.32-3.18,3.55v3.91h-1.45Zm13.4,6a3.54,3.54,0,0,1-3.76,3c-2.8,0-4.13-1.94-4.22-4.62s1.73-4.57,4.13-4.57c3.11,0,4.06,2.91,4,5h-6.58a2.59,2.59,0,0,0,2.74,2.89A2.12,2.12,0,0,0,232.73,53Zm-1.39-2.45a2.53,2.53,0,0,0-2.53-2.48,2.5,2.5,0,0,0-2.52,2.48Zm11.29,5.23h-1.44V54.58h0a3,3,0,0,1-2.8,1.39c-2.7,0-4-2.14-4-4.62s1.33-4.57,4-4.57a3.36,3.36,0,0,1,2.84,1.38h0V43.63h1.44ZM240,54.7c1.94,0,2.69-1.67,2.69-3.31s-.78-3.33-2.77-3.33-2.63,1.68-2.63,3.4S238.11,54.7,240,54.7Zm8-9.3h-1.45V43.63H248ZM246.55,47H248v8.79h-1.45Zm5.95,0h1.75v1.27H252.5v5.46c0,.66.19.78,1.09.78h.66v1.27h-1.11c-1.5,0-2.09-.3-2.09-1.92V48.26h-1.5V47h1.5V44.35h1.45Zm18.68,4.4c0,3.06-1.75,4.67-4.78,4.67s-5-1.45-5-4.67V43.63H263v7.75a3,3,0,0,0,3.37,3.31c2,0,3.16-1.17,3.16-3.31V43.63h1.62Zm2.58-4.4h1.36v1.39h0a3.06,3.06,0,0,1,2.86-1.6c2.31,0,3,1.33,3,3.21v5.78h-1.44V49.82a1.66,1.66,0,0,0-1.79-1.77,2.47,2.47,0,0,0-2.6,2.75v5h-1.45Zm11.18-1.58h-1.45V43.63h1.45ZM283.49,47h1.45v8.79h-1.45Zm7.72-.2c2.79,0,4.27,2,4.27,4.61S294,56,291.21,56s-4.27-2-4.27-4.59S288.42,46.78,291.21,46.78Zm0,7.92c1.51,0,2.74-1.19,2.74-3.31s-1.22-3.33-2.74-3.33-2.74,1.19-2.74,3.33S289.7,54.7,291.21,54.7ZM297.45,47h1.36v1.39h0a3.06,3.06,0,0,1,2.86-1.6c2.31,0,3,1.33,3,3.21v5.78h-1.44V49.82a1.66,1.66,0,0,0-1.79-1.77,2.47,2.47,0,0,0-2.6,2.75v5h-1.45Z"/>
  <rect class="cls-1" x="194.26" y="2.26" width="1.2" height="54.87"/>
  <path class="cls-1" d="M61.31,11.5h2.88V35.11H61.31Zm24.48,6.91c-.14-3.57-2.88-5.17-6.18-5.17-2.56,0-5.58,1-5.58,4.07,0,2.56,2.93,3.48,4.9,4l3.84.87c3.3.5,6.73,2.43,6.73,6.54,0,5.13-5.08,7.09-9.47,7.09-5.49,0-9.24-2.56-9.7-8.33h2.88c.23,3.89,3.11,5.9,7,5.9,2.7,0,6.45-1.19,6.45-4.48,0-2.75-2.56-3.66-5.17-4.3l-3.71-.82c-3.75-1-6.59-2.29-6.59-6.32,0-4.8,4.71-6.64,8.88-6.64,4.71,0,8.47,2.47,8.65,7.6Zm9.84-16h2.88V35.11H95.63Zm10.2,16.29c.28-5.54,4.17-7.92,9.57-7.92,4.17,0,8.7,1.28,8.7,7.6V30.95a1.53,1.53,0,0,0,1.69,1.74,2.69,2.69,0,0,0,.91-.18v2.43a7.83,7.83,0,0,1-1.88.18c-2.93,0-3.39-1.65-3.39-4.12h-.09c-2,3.07-4.07,4.8-8.6,4.8-4.35,0-7.92-2.15-7.92-6.91,0-6.64,6.45-6.87,12.68-7.6,2.38-.28,3.71-.59,3.71-3.2,0-3.89-2.79-4.85-6.18-4.85-3.57,0-6.22,1.65-6.32,5.49Zm15.38,3.48h-.09c-.37.69-1.65.92-2.43,1.05-4.9.87-11,.82-11,5.45,0,2.88,2.56,4.67,5.26,4.67,4.39,0,8.28-2.79,8.24-7.42ZM132.14,11.5H135v4.07h.09c1.05-2.84,4.21-4.76,7.55-4.76,6.64,0,8.65,3.48,8.65,9.11V35.11h-2.88V20.37c0-4.07-1.33-7.14-6-7.14s-7.32,3.48-7.42,8.1V35.11h-2.88Zm47,23.61h-2.66V30.63h-.09c-1.24,3.06-5,5.17-8.42,5.17-7.18,0-10.62-5.81-10.62-12.49s3.43-12.5,10.62-12.5c3.52,0,7,1.79,8.19,5.17h.09V2.43h2.88Zm-11.17-1.74c6.13,0,8.28-5.17,8.28-10.07s-2.15-10.07-8.28-10.07c-5.49,0-7.73,5.17-7.73,10.07S162.43,33.37,167.92,33.37ZM61.25,2.44h1.34v.94l0,0a2.29,2.29,0,0,1,2-1.14,2,2,0,0,1,2.27,2.18V8.83H65.46v-4c0-1-.42-1.43-1.25-1.43a1.56,1.56,0,0,0-1.55,1.68V8.83H61.25ZM68.3,5.63a3.23,3.23,0,1,1,6.46,0,3.23,3.23,0,1,1-6.46,0Zm5,0c0-1.1-.56-2.25-1.82-2.25s-1.82,1.15-1.82,2.25.56,2.26,1.82,2.26S73.35,6.74,73.35,5.63Zm2.83-3.19h1.32V3.67h0A2.06,2.06,0,0,1,79.4,2.26a3.4,3.4,0,0,1,.53,0V3.66a5,5,0,0,0-.61-.06c-1,0-1.73.78-1.73,2.19v3H76.19Zm4.95,0H82.2V.52h1.41V2.44h1.27V3.49H83.61V6.9c0,.58.05.88.68.88a2.43,2.43,0,0,0,.59,0V8.82c-.31,0-.6.07-.91.07-1.47,0-1.74-.57-1.77-1.63V3.49H81.13ZM86.39,0H87.8V3.28h0a2.24,2.24,0,0,1,1.92-1A2,2,0,0,1,92,4.44V8.83H90.6v-4c0-1-.42-1.43-1.25-1.43A1.56,1.56,0,0,0,87.8,5.06V8.83H86.39ZM70,47.13a3.42,3.42,0,0,0-3.56-3c-3,0-4.42,2.68-4.42,5.37s1.46,5.37,4.42,5.37a3.75,3.75,0,0,0,3.66-3.59h1.54c-.42,3-2.39,4.88-5.2,4.88-3.85,0-6-3-6-6.66s2.1-6.66,6-6.66c2.68,0,4.76,1.44,5.1,4.32Zm3.63-4h1.42v3h0A4.65,4.65,0,0,1,79.86,43v1.54a4.34,4.34,0,0,0-4.68,4.51v6.71H73.64Zm8,6.71c0,2.25,1.2,5,4.15,5a3.84,3.84,0,0,0,4-3.22h1.54c-.66,2.85-2.32,4.51-5.49,4.51-4,0-5.69-3.07-5.69-6.66,0-3.32,1.68-6.66,5.69-6.66s5.66,3.54,5.54,7.07Zm8.15-1.29c-.07-2.32-1.51-4.49-4-4.49s-3.9,2.2-4.15,4.49Zm14.54,7.17h-1.41V53.38h-.05a5,5,0,0,1-4.49,2.76c-3.83,0-5.66-3.1-5.66-6.66s1.83-6.66,5.66-6.66a4.49,4.49,0,0,1,4.37,2.76h0V38.35h1.54Zm-6-.93c3.27,0,4.42-2.76,4.42-5.37s-1.15-5.37-4.42-5.37c-2.93,0-4.12,2.76-4.12,5.37S95.45,54.84,98.38,54.84Zm8.76-16.49h1.54v2.46h-1.54Zm0,4.83h1.54V55.77h-1.54Zm6.78,0h2.56v1.29h-2.56V53c0,1,.14,1.59,1.24,1.66a12,12,0,0,0,1.32-.07v1.32c-.46,0-.9,0-1.37,0-2,0-2.76-.68-2.73-2.83V44.47h-2.2V43.18h2.2V39.4h1.54Zm21.47,12.59H134V53.5h0a4.68,4.68,0,0,1-4.34,2.64c-3.17,0-4.41-1.85-4.41-4.78V43.18h1.54v8.2c.07,2.27.93,3.46,3.37,3.46,2.63,0,3.78-2.49,3.78-5V43.18h1.54Zm2.73-12.59h1.54v2.17h0a4.27,4.27,0,0,1,4-2.54c3.54,0,4.61,1.85,4.61,4.85v8.1H146.8V47.92c0-2.17-.71-3.81-3.2-3.81s-3.9,1.85-4,4.32v7.34h-1.54Zm13-4.83h1.54v2.46h-1.54Zm0,4.83h1.54V55.77h-1.54Zm15.61,6.29c0,3.61-2.1,6.66-6,6.66s-6-3-6-6.66,2.1-6.66,6-6.66S166.73,45.86,166.73,49.48Zm-10.37,0c0,2.68,1.46,5.37,4.41,5.37s4.42-2.68,4.42-5.37-1.46-5.37-4.42-5.37S156.36,46.79,156.36,49.48Zm12.49-6.29h1.54v2.17h0a4.27,4.27,0,0,1,4-2.54c3.54,0,4.61,1.85,4.61,4.85v8.1h-1.54V47.92c0-2.17-.71-3.81-3.2-3.81s-3.9,1.85-4,4.32v7.34h-1.54ZM181,53.25a1.27,1.27,0,1,1-1.26,1.26A1.25,1.25,0,0,1,181,53.25Zm0,.2a1.07,1.07,0,1,0,1,1.07,1,1,0,0,0-1-1.07Zm-.24,1.8h-.22V53.83a2.5,2.5,0,0,1,.4,0,.73.73,0,0,1,.44.11.34.34,0,0,1,.13.29.35.35,0,0,1-.28.34h0c.12,0,.21.13.24.34a1.16,1.16,0,0,0,.09.35h-.23a1,1,0,0,1-.1-.36.26.26,0,0,0-.3-.25h-.16Zm0-.78h.16c.19,0,.34-.07.34-.24s-.09-.25-.34-.25h-.16Z"/>
  <path class="cls-1" d="M47.18,2.39H0V49.57a6.17,6.17,0,0,0,6.15,6.15H53.32V8.54A6.17,6.17,0,0,0,47.18,2.39Z"/>
  <path class="cls-2" d="M39.33,14.25a3.38,3.38,0,0,0-5,.53h0a3.37,3.37,0,0,0-4.78-1.54c1.73-1.79,4-.69,4.91.27C35.59,12.76,38,12.13,39.33,14.25ZM43.6,19.8c-1.33-1.44-4.52-3.15-7.12-.63a4.9,4.9,0,0,1,6.86,2.47v0h0v0a4.9,4.9,0,0,1,7.27-.5C48.8,18,45.28,18.78,43.6,19.8Z"/>
  <path class="cls-3" d="M19.68,33.06c4.52-.85,9.58-1.79,15.6.3a8.85,8.85,0,0,0,.07-1.08A8.7,8.7,0,1,0,18,33.38Z"/>
  <path class="cls-4" d="M50.63,36.62c-4.15-1.79-7.81-.24-12.08.52-3.72.73-7.45,1.41-12-.83,4.15,1.79,7.81.24,12.08-.52C42.32,35.06,46,34.38,50.63,36.62Zm-13.74-.74c-6.44-3-11.65-2.11-16.86-1.13-6,1-11.09,3.09-16.91.67,6.44,3,11.65,2.11,16.86,1.13C26,35.55,31.07,33.47,36.89,35.88Z"/>
</svg>
